solid useless Machine arm
facet normal -0.793353340291235 -0.608761429008721 -0.0
outer loop
vertex -21.650635094611 -12.5 3.0
vertex -17.6776695296637 -17.6776695296637 0.0
vertex -17.6776695296637 -17.6776695296637 3.0
endloop
endfacet
facet normal -0.793353340291235 -0.608761429008721 -0.0
outer loop
vertex -17.6776695296637 -17.6776695296637 0.0
vertex -21.650635094611 -12.5 3.0
vertex -21.650635094611 -12.5 0.0
endloop
endfacet
facet normal -0.608761429008721 -0.793353340291235 -0.0
outer loop
vertex -12.5 -21.650635094611 3.0
vertex -17.6776695296637 -17.6776695296637 0.0
vertex -12.5 -21.650635094611 0.0
endloop
endfacet
facet normal -0.608761429008721 -0.793353340291235 -0.0
outer loop
vertex -17.6776695296637 -17.6776695296637 0.0
vertex -12.5 -21.650635094611 3.0
vertex -17.6776695296637 -17.6776695296637 3.0
endloop
endfacet
facet normal -0.38268343236509 -0.923879532511287 -0.0
outer loop
vertex -6.47047612756302 -24.1481456572267 3.0
vertex -12.5 -21.650635094611 0.0
vertex -6.47047612756302 -24.1481456572267 0.0
endloop
endfacet
facet normal -0.38268343236509 -0.923879532511287 -0.0
outer loop
vertex -12.5 -21.650635094611 0.0
vertex -6.47047612756302 -24.1481456572267 3.0
vertex -12.5 -21.650635094611 3.0
endloop
endfacet
facet normal -0.130526192220052 -0.99144486137381 -0.0
outer loop
vertex -1.53080849893419e-015 -25.0 3.0
vertex -6.47047612756302 -24.1481456572267 0.0
vertex -1.53080849893419e-015 -25.0 0.0
endloop
endfacet
facet normal -0.130526192220052 -0.99144486137381 -0.0
outer loop
vertex -6.47047612756302 -24.1481456572267 0.0
vertex -1.53080849893419e-015 -25.0 3.0
vertex -6.47047612756302 -24.1481456572267 3.0
endloop
endfacet
facet normal 0.130526192220051 -0.991444861373811 0.0
outer loop
vertex 6.47047612756302 -24.1481456572267 3.0
vertex -1.53080849893419e-015 -25.0 0.0
vertex 6.47047612756302 -24.1481456572267 0.0
endloop
endfacet
facet normal 0.130526192220051 -0.991444861373811 0.0
outer loop
vertex -1.53080849893419e-015 -25.0 0.0
vertex 6.47047612756302 -24.1481456572267 3.0
vertex -1.53080849893419e-015 -25.0 3.0
endloop
endfacet
facet normal 0.38268343236509 -0.923879532511287 0.0
outer loop
vertex 12.5 -21.650635094611 3.0
vertex 6.47047612756302 -24.1481456572267 0.0
vertex 12.5 -21.650635094611 0.0
endloop
endfacet
facet normal 0.38268343236509 -0.923879532511287 0.0
outer loop
vertex 6.47047612756302 -24.1481456572267 0.0
vertex 12.5 -21.650635094611 3.0
vertex 6.47047612756302 -24.1481456572267 3.0
endloop
endfacet
facet normal 0.60876142900872 -0.793353340291236 0.0
outer loop
vertex 17.6776695296637 -17.6776695296637 3.0
vertex 12.5 -21.650635094611 0.0
vertex 17.6776695296637 -17.6776695296637 0.0
endloop
endfacet
facet normal 0.60876142900872 -0.793353340291236 0.0
outer loop
vertex 12.5 -21.650635094611 0.0
vertex 17.6776695296637 -17.6776695296637 3.0
vertex 12.5 -21.650635094611 3.0
endloop
endfacet
facet normal 0.793353340291235 -0.608761429008721 0.0
outer loop
vertex 21.650635094611 -12.5 0.0
vertex 17.6776695296637 -17.6776695296637 3.0
vertex 17.6776695296637 -17.6776695296637 0.0
endloop
endfacet
facet normal 0.793353340291235 -0.608761429008721 0.0
outer loop
vertex 17.6776695296637 -17.6776695296637 3.0
vertex 21.650635094611 -12.5 0.0
vertex 21.650635094611 -12.5 3.0
endloop
endfacet
facet normal 0.923879532511287 -0.38268343236509 0.0
outer loop
vertex 24.1481456572267 -6.47047612756303 0.0
vertex 21.650635094611 -12.5 3.0
vertex 21.650635094611 -12.5 0.0
endloop
endfacet
facet normal 0.923879532511287 -0.38268343236509 0.0
outer loop
vertex 21.650635094611 -12.5 3.0
vertex 24.1481456572267 -6.47047612756303 0.0
vertex 24.1481456572267 -6.47047612756303 3.0
endloop
endfacet
facet normal 0.99144486137381 -0.130526192220052 9.03073230492227e-017
outer loop
vertex 25.0 -3.06161699786838e-015 0.0
vertex 24.1481456572267 -6.47047612756303 3.0
vertex 24.1481456572267 -6.47047612756303 0.0
endloop
endfacet
facet normal 0.99144486137381 -0.130526192220052 9.03073230492227e-017
outer loop
vertex 24.1481456572267 -6.47047612756303 3.0
vertex 25.0 -3.06161699786838e-015 0.0
vertex 24.4656427159441 -4.05884653803209 3.0
endloop
endfacet
facet normal 0.99144486137381 -0.130526192220052 9.03073230492227e-017
outer loop
vertex 24.4656427159441 -4.05884653803209 3.0
vertex 25.0 -3.06161699786838e-015 0.0
vertex 24.4656427159441 -4.05884653803209 7.19999999999999
endloop
endfacet
facet normal 0.99144486137381 -0.130526192220052 9.03073230492227e-017
outer loop
vertex 24.4656427159441 -4.05884653803209 7.19999999999999
vertex 25.0 -3.06161699786838e-015 0.0
vertex 25.0 -2.99876780191335e-015 7.19999999999999
endloop
endfacet
facet normal -0.922831484248947 0.385203909220669 4.48086809020216e-018
outer loop
vertex -22.4741669520326 10.4808203014859 3.0
vertex -24.1481456572267 6.47047612756304 0.0
vertex -24.1481456572267 6.47047612756304 3.0
endloop
endfacet
facet normal -0.922831484248947 0.385203909220669 4.48086809020216e-018
outer loop
vertex -24.1481456572267 6.47047612756304 0.0
vertex -22.4741669520326 10.4808203014859 3.0
vertex -22.4741669520326 10.4808203014859 1.76247905159244e-015
endloop
endfacet
facet normal -0.99144486137381 0.130526192220052 0.0
outer loop
vertex -24.1481456572267 6.47047612756304 3.0
vertex -25.0 0.0 0.0
vertex -25.0 0.0 3.0
endloop
endfacet
facet normal -0.99144486137381 0.130526192220052 0.0
outer loop
vertex -25.0 0.0 0.0
vertex -24.1481456572267 6.47047612756304 3.0
vertex -24.1481456572267 6.47047612756304 0.0
endloop
endfacet
facet normal -0.991444861373811 -0.130526192220051 -0.0
outer loop
vertex -25.0 0.0 3.0
vertex -24.1481456572267 -6.47047612756302 0.0
vertex -24.1481456572267 -6.47047612756302 3.0
endloop
endfacet
facet normal -0.991444861373811 -0.130526192220051 -0.0
outer loop
vertex -24.1481456572267 -6.47047612756302 0.0
vertex -25.0 0.0 3.0
vertex -25.0 0.0 0.0
endloop
endfacet
facet normal -0.923879532511287 -0.38268343236509 -0.0
outer loop
vertex -24.1481456572267 -6.47047612756302 3.0
vertex -21.650635094611 -12.5 0.0
vertex -21.650635094611 -12.5 3.0
endloop
endfacet
facet normal -0.923879532511287 -0.38268343236509 -0.0
outer loop
vertex -21.650635094611 -12.5 0.0
vertex -24.1481456572267 -6.47047612756302 3.0
vertex -24.1481456572267 -6.47047612756302 0.0
endloop
endfacet
facet normal 8.40997737834583e-017 1.50388021627722e-016 -1.0
outer loop
vertex -13.3814953567467 14.6036031086314 1.76247905159244e-015
vertex -13.3863487318177 -1.31618187877045 7.57865992184748e-015
vertex -15.511873527873 14.8128487265894 1.76247905159244e-015
endloop
endfacet
facet normal 8.40997737834583e-017 1.50388021627722e-016 -1.0
outer loop
vertex -13.3863487318177 -1.31618187877045 7.57865992184748e-015
vertex -13.3814953567467 14.6036031086314 1.76247905159244e-015
vertex -12.8589295736356 -1.22895894882644 4.0537018186626e-015
endloop
endfacet
facet normal 8.40997737834583e-017 1.50388021627722e-016 -1.0
outer loop
vertex -12.8589295736356 -1.22895894882644 4.0537018186626e-015
vertex -13.3814953567467 14.6036031086314 1.76247905159244e-015
vertex -11.3778648125251 13.8501049182498 1.76247905159244e-015
endloop
endfacet
facet normal 8.40997737834583e-017 1.50388021627722e-016 -1.0
outer loop
vertex -12.8589295736356 -1.22895894882644 4.0537018186626e-015
vertex -11.3778648125251 13.8501049182498 1.76247905159244e-015
vertex -10.9093451487934 -0.344981884045471 4.0537018186626e-015
endloop
endfacet
facet normal 8.40997737834583e-017 1.50388021627722e-016 -1.0
outer loop
vertex -10.9093451487934 -0.344981884045471 4.0537018186626e-015
vertex -11.3778648125251 13.8501049182498 1.76247905159244e-015
vertex -9.6375260056409 12.6037038119044 1.76247905159244e-015
endloop
endfacet
facet normal 8.40997737834583e-017 1.50388021627722e-016 -1.0
outer loop
vertex -10.9093451487934 -0.344981884045471 4.0537018186626e-015
vertex -9.6375260056409 12.6037038119044 1.76247905159244e-015
vertex -9.25498130210656 1.01346397185808 4.0537018186626e-015
endloop
endfacet
facet normal 8.40997737834583e-017 1.50388021627722e-016 -1.0
outer loop
vertex -9.25498130210656 1.01346397185808 4.0537018186626e-015
vertex -9.6375260056409 12.6037038119044 1.76247905159244e-015
vertex -8.35235190729449 11.0385729266632 4.58244553414033e-015
endloop
endfacet
facet normal 8.40997737834583e-017 1.50388021627722e-016 -1.0
outer loop
vertex -9.25498130210656 1.01346397185808 4.0537018186626e-015
vertex -8.35235190729449 11.0385729266632 4.58244553414033e-015
vertex -8.00858019576122 2.7538027787423 4.0537018186626e-015
endloop
endfacet
facet normal 8.40997737834583e-017 1.50388021627722e-016 -1.0
outer loop
vertex -8.00858019576122 2.7538027787423 4.0537018186626e-015
vertex -8.35235190729449 11.0385729266632 4.58244553414033e-015
vertex -8.27908014973734 10.9493399652176 4.75869343929958e-015
endloop
endfacet
facet normal 8.40997737834583e-017 1.50388021627722e-016 -1.0
outer loop
vertex -8.00858019576122 2.7538027787423 4.0537018186626e-015
vertex -8.27908014973734 10.9493399652176 4.75869343929958e-015
vertex -7.39510308495638 8.99975554037536 4.75869343929958e-015
endloop
endfacet
facet normal 8.40997737834583e-017 1.50388021627722e-016 -1.0
outer loop
vertex -8.00858019576122 2.7538027787423 4.0537018186626e-015
vertex -7.39510308495638 8.99975554037536 4.75869343929958e-015
vertex -7.25508200537962 4.75743332296391 4.0537018186626e-015
endloop
endfacet
facet normal 8.40997737834583e-017 1.50388021627722e-016 -1.0
outer loop
vertex -7.25508200537962 4.75743332296391 4.0537018186626e-015
vertex -7.39510308495638 8.99975554037536 4.75869343929958e-015
vertex -7.04583638742164 6.88781149409022 4.0537018186626e-015
endloop
endfacet
facet normal 8.40997737834583e-017 1.50388021627722e-016 -1.0
outer loop
vertex 25.0 -3.06161699786838e-015 0.0
vertex 22.1958673301678 -3.00646342102587 1.03986264043954e-014
vertex 22.0829690119226 -3.18242304278837e-015 4.58244553414033e-015
endloop
endfacet
facet normal 8.40997737834583e-017 1.50388021627722e-016 -1.0
outer loop
vertex 22.1958673301678 -3.00646342102587 1.03986264043954e-014
vertex 25.0 -3.06161699786838e-015 0.0
vertex 24.1481456572267 -6.47047612756303 0.0
endloop
endfacet
facet normal 8.40997737834583e-017 1.50388021627722e-016 -1.0
outer loop
vertex -24.1481456572267 6.47047612756304 0.0
vertex -24.1481456572267 -6.47047612756302 0.0
vertex -25.0 0.0 0.0
endloop
endfacet
facet normal 8.40997737834583e-017 1.50388021627722e-016 -1.0
outer loop
vertex -24.1481456572267 -6.47047612756302 0.0
vertex -24.1481456572267 6.47047612756304 0.0
vertex -21.650635094611 -12.5 0.0
endloop
endfacet
facet normal 8.40997737834583e-017 1.50388021627722e-016 -1.0
outer loop
vertex -21.650635094611 -12.5 0.0
vertex -24.1481456572267 6.47047612756304 0.0
vertex -22.4741669520326 10.4808203014859 1.76247905159244e-015
endloop
endfacet
facet normal 8.40997737834583e-017 1.50388021627722e-016 -1.0
outer loop
vertex -21.650635094611 -12.5 0.0
vertex -22.4741669520326 10.4808203014859 1.76247905159244e-015
vertex -21.2277658456873 12.2211591083701 1.76247905159244e-015
endloop
endfacet
facet normal 8.40997737834583e-017 1.50388021627722e-016 -1.0
outer loop
vertex -21.650635094611 -12.5 0.0
vertex -21.2277658456873 12.2211591083701 1.76247905159244e-015
vertex -17.6776695296637 -17.6776695296637 0.0
endloop
endfacet
facet normal 8.40997737834583e-017 1.50388021627722e-016 -1.0
outer loop
vertex -17.6776695296637 -17.6776695296637 0.0
vertex -21.2277658456873 12.2211591083701 1.76247905159244e-015
vertex -19.5734019990004 13.5796049642737 1.76247905159244e-015
endloop
endfacet
facet normal 8.40997737834583e-017 1.50388021627722e-016 -1.0
outer loop
vertex -17.6776695296637 -17.6776695296637 0.0
vertex -19.5734019990004 13.5796049642737 1.76247905159244e-015
vertex -17.6238175741582 14.4635820290546 1.76247905159244e-015
endloop
endfacet
facet normal 8.40997737834583e-017 1.50388021627722e-016 -1.0
outer loop
vertex -17.6776695296637 -17.6776695296637 0.0
vertex -17.6238175741582 14.4635820290546 1.76247905159244e-015
vertex -12.5 -21.650635094611 0.0
endloop
endfacet
facet normal 8.40997737834583e-017 1.50388021627722e-016 -1.0
outer loop
vertex -12.5 -21.650635094611 0.0
vertex -17.6238175741582 14.4635820290546 1.76247905159244e-015
vertex -15.511873527873 14.8128487265894 1.76247905159244e-015
endloop
endfacet
facet normal 8.40997737834583e-017 1.50388021627722e-016 -1.0
outer loop
vertex -12.5 -21.650635094611 0.0
vertex -15.511873527873 14.8128487265894 1.76247905159244e-015
vertex -13.2728595319635 -4.33838037868105 1.03986264043954e-014
endloop
endfacet
facet normal 8.40997737834583e-017 1.50388021627722e-016 -1.0
outer loop
vertex -13.2728595319635 -4.33838037868105 1.03986264043954e-014
vertex -15.511873527873 14.8128487265894 1.76247905159244e-015
vertex -13.3863487318177 -1.31618187877045 7.57865992184748e-015
endloop
endfacet
facet normal 8.40997737834583e-017 1.50388021627722e-016 -1.0
outer loop
vertex -12.5 -21.650635094611 0.0
vertex -13.2728595319635 -4.33838037868105 1.03986264043954e-014
vertex -11.8949166904758 -8.80343194871157 1.03986264043954e-014
endloop
endfacet
facet normal 8.40997737834583e-017 1.50388021627722e-016 -1.0
outer loop
vertex -12.5 -21.650635094611 0.0
vertex -11.8949166904758 -8.80343194871157 1.03986264043954e-014
vertex -6.47047612756302 -24.1481456572267 0.0
endloop
endfacet
facet normal 8.40997737834583e-017 1.50388021627722e-016 -1.0
outer loop
vertex -6.47047612756302 -24.1481456572267 0.0
vertex -11.8949166904758 -8.80343194871157 1.03986264043954e-014
vertex -9.40828572904382 -12.7597027254769 1.03986264043954e-014
endloop
endfacet
facet normal 8.40997737834583e-017 1.50388021627722e-016 -1.0
outer loop
vertex -6.47047612756302 -24.1481456572267 0.0
vertex -9.40828572904382 -12.7597027254769 1.03986264043954e-014
vertex -5.98242643833728 -15.9375793935871 9.6936347837584e-015
endloop
endfacet
facet normal 8.40997737834583e-017 1.50388021627722e-016 -1.0
outer loop
vertex -6.47047612756302 -24.1481456572267 0.0
vertex -5.98242643833728 -15.9375793935871 9.6936347837584e-015
vertex -1.53080849893419e-015 -25.0 0.0
endloop
endfacet
facet normal 8.40997737834583e-017 1.50388021627722e-016 -1.0
outer loop
vertex -1.53080849893419e-015 -25.0 0.0
vertex -5.98242643833728 -15.9375793935871 9.6936347837584e-015
vertex -1.85080546751765 -18.1204949097999 9.6936347837584e-015
endloop
endfacet
facet normal 8.40997737834583e-017 1.50388021627722e-016 -1.0
outer loop
vertex -1.53080849893419e-015 -25.0 0.0
vertex -1.85080546751765 -18.1204949097999 9.6936347837584e-015
vertex 2.70501404208023 -19.1596871891239 9.6936347837584e-015
endloop
endfacet
facet normal 8.40997737834583e-017 1.50388021627722e-016 -1.0
outer loop
vertex -1.53080849893419e-015 -25.0 0.0
vertex 2.70501404208023 -19.1596871891239 9.6936347837584e-015
vertex 6.47047612756302 -24.1481456572267 0.0
endloop
endfacet
facet normal 8.40997737834583e-017 1.50388021627722e-016 -1.0
outer loop
vertex 6.47047612756302 -24.1481456572267 0.0
vertex 2.70501404208023 -19.1596871891239 9.6936347837584e-015
vertex 7.37456051972497 -18.9843369950696 9.6936347837584e-015
endloop
endfacet
facet normal 8.40997737834583e-017 1.50388021627722e-016 -1.0
outer loop
vertex 6.47047612756302 -24.1481456572267 0.0
vertex 7.37456051972497 -18.9843369950696 9.6936347837584e-015
vertex 12.5 -21.650635094611 0.0
endloop
endfacet
facet normal 8.40997737834583e-017 1.50388021627722e-016 -1.0
outer loop
vertex 12.5 -21.650635094611 0.0
vertex 7.37456051972497 -18.9843369950696 9.6936347837584e-015
vertex 11.8396120897555 -17.6063941535819 9.6936347837584e-015
endloop
endfacet
facet normal 8.40997737834583e-017 1.50388021627722e-016 -1.0
outer loop
vertex 12.5 -21.650635094611 0.0
vertex 11.8396120897555 -17.6063941535819 9.6936347837584e-015
vertex 15.7958828665208 -15.1197631921499 9.6936347837584e-015
endloop
endfacet
facet normal 8.40997737834583e-017 1.50388021627722e-016 -1.0
outer loop
vertex 12.5 -21.650635094611 0.0
vertex 15.7958828665208 -15.1197631921499 9.6936347837584e-015
vertex 17.6776695296637 -17.6776695296637 0.0
endloop
endfacet
facet normal 8.40997737834583e-017 1.50388021627722e-016 -1.0
outer loop
vertex 17.6776695296637 -17.6776695296637 0.0
vertex 15.7958828665208 -15.1197631921499 9.6936347837584e-015
vertex 18.973759534631 -11.6939039014434 9.6936347837584e-015
endloop
endfacet
facet normal 8.40997737834583e-017 1.50388021627722e-016 -1.0
outer loop
vertex 17.6776695296637 -17.6776695296637 0.0
vertex 18.973759534631 -11.6939039014434 9.6936347837584e-015
vertex 21.650635094611 -12.5 0.0
endloop
endfacet
facet normal 8.40997737834583e-017 1.50388021627722e-016 -1.0
outer loop
vertex 21.650635094611 -12.5 0.0
vertex 18.973759534631 -11.6939039014434 9.6936347837584e-015
vertex 21.1566750508438 -7.56228293062375 9.6936347837584e-015
endloop
endfacet
facet normal 8.40997737834583e-017 1.50388021627722e-016 -1.0
outer loop
vertex 21.650635094611 -12.5 0.0
vertex 21.1566750508438 -7.56228293062375 9.6936347837584e-015
vertex 22.1958673301678 -3.00646342102587 1.03986264043954e-014
endloop
endfacet
facet normal 8.40997737834583e-017 1.50388021627722e-016 -1.0
outer loop
vertex 21.650635094611 -12.5 0.0
vertex 22.1958673301678 -3.00646342102587 1.03986264043954e-014
vertex 24.1481456572267 -6.47047612756303 0.0
endloop
endfacet
facet normal -0.813003261085425 0.58225913257283 0.0
outer loop
vertex -21.2277658456873 12.2211591083701 3.0
vertex -22.4741669520326 10.4808203014859 1.76247905159244e-015
vertex -22.4741669520326 10.4808203014859 3.0
endloop
endfacet
facet normal -0.813003261085425 0.58225913257283 0.0
outer loop
vertex -22.4741669520326 10.4808203014859 1.76247905159244e-015
vertex -21.2277658456873 12.2211591083701 3.0
vertex -21.2277658456873 12.2211591083701 1.76247905159244e-015
endloop
endfacet
facet normal -0.634601094044925 0.772839861444132 -0.0
outer loop
vertex -21.2277658456873 12.2211591083701 3.0
vertex -19.5734019990004 13.5796049642737 1.76247905159244e-015
vertex -21.2277658456873 12.2211591083701 1.76247905159244e-015
endloop
endfacet
facet normal -0.634601094044925 0.772839861444132 -0.0
outer loop
vertex -19.5734019990004 13.5796049642737 1.76247905159244e-015
vertex -21.2277658456873 12.2211591083701 3.0
vertex -19.5734019990004 13.5796049642737 3.0
endloop
endfacet
facet normal -0.412951911173155 0.910752830936275 -0.0
outer loop
vertex -19.5734019990004 13.5796049642737 3.0
vertex -17.6238175741582 14.4635820290546 1.76247905159244e-015
vertex -19.5734019990004 13.5796049642737 1.76247905159244e-015
endloop
endfacet
facet normal -0.412951911173155 0.910752830936275 -0.0
outer loop
vertex -17.6238175741582 14.4635820290546 1.76247905159244e-015
vertex -19.5734019990004 13.5796049642737 3.0
vertex -17.6238175741582 14.4635820290546 3.0
endloop
endfacet
facet normal -0.163160737990236 0.986599500090326 -0.0
outer loop
vertex -17.6238175741582 14.4635820290546 3.0
vertex -15.511873527873 14.8128487265894 1.76247905159244e-015
vertex -17.6238175741582 14.4635820290546 1.76247905159244e-015
endloop
endfacet
facet normal -0.163160737990236 0.986599500090326 -0.0
outer loop
vertex -15.511873527873 14.8128487265894 1.76247905159244e-015
vertex -17.6238175741582 14.4635820290546 3.0
vertex -15.511873527873 14.8128487265894 3.0
endloop
endfacet
facet normal 0.0977495698508494 0.995211043745985 -0.0
outer loop
vertex -15.511873527873 14.8128487265894 3.0
vertex -13.3814953567467 14.6036031086314 1.76247905159244e-015
vertex -15.511873527873 14.8128487265894 1.76247905159244e-015
endloop
endfacet
facet normal 0.0977495698508494 0.995211043745985 -0.0
outer loop
vertex -13.3814953567467 14.6036031086314 1.76247905159244e-015
vertex -15.511873527873 14.8128487265894 3.0
vertex -13.3814953567467 14.6036031086314 3.0
endloop
endfacet
facet normal 0.351998406045403 0.936000599434368 -3.60628684135822e-018
outer loop
vertex -13.3814953567467 14.6036031086314 3.0
vertex -11.3778648125251 13.8501049182498 1.76247905159244e-015
vertex -13.3814953567467 14.6036031086314 1.76247905159244e-015
endloop
endfacet
facet normal 0.351998406045403 0.936000599434368 -3.60628684135822e-018
outer loop
vertex -11.3778648125251 13.8501049182498 1.76247905159244e-015
vertex -13.3814953567467 14.6036031086314 3.0
vertex -11.3778648125251 13.8501049182498 3.0
endloop
endfacet
facet normal 0.58225913257283 0.813003261085425 3.21544962303758e-032
outer loop
vertex -11.3778648125251 13.8501049182498 3.0
vertex -9.6375260056409 12.6037038119044 1.76247905159244e-015
vertex -11.3778648125251 13.8501049182498 1.76247905159244e-015
endloop
endfacet
facet normal 0.58225913257283 0.813003261085425 3.21544962303758e-032
outer loop
vertex -9.6375260056409 12.6037038119044 1.76247905159244e-015
vertex -11.3778648125251 13.8501049182498 3.0
vertex -9.6375260056409 12.6037038119044 3.0
endloop
endfacet
facet normal 0.772839861444132 0.634601094044925 -6.54720763972999e-018
outer loop
vertex -9.6375260056409 12.6037038119044 1.76247905159244e-015
vertex -8.35235190729449 11.0385729266632 3.0
vertex -8.35235190729449 11.0385729266632 4.58244553414033e-015
endloop
endfacet
facet normal 0.772839861444132 0.634601094044925 -6.54720763972999e-018
outer loop
vertex -8.35235190729449 11.0385729266632 3.0
vertex -9.6375260056409 12.6037038119044 1.76247905159244e-015
vertex -9.6375260056409 12.6037038119044 3.0
endloop
endfacet
facet normal 0.772839861444133 0.634601094044923 3.78559720998131e-019
outer loop
vertex -8.35235190729449 11.0385729266632 4.58244553414033e-015
vertex -8.27908014973734 10.9493399652176 3.0
vertex -8.27908014973734 10.9493399652176 4.75869343929958e-015
endloop
endfacet
facet normal 0.772839861444133 0.634601094044923 3.78559720998131e-019
outer loop
vertex -8.27908014973734 10.9493399652176 3.0
vertex -8.35235190729449 11.0385729266632 4.58244553414033e-015
vertex -8.35235190729449 11.0385729266632 3.0
endloop
endfacet
facet normal 0.910752830936275 0.412951911173155 9.29901821234735e-017
outer loop
vertex -8.27908014973734 10.9493399652176 4.75869343929958e-015
vertex -7.39510308495638 8.99975554037536 3.0
vertex -7.39510308495638 8.99975554037536 4.75869343929958e-015
endloop
endfacet
facet normal 0.910752830936275 0.412951911173155 9.29901821234735e-017
outer loop
vertex -7.39510308495638 8.99975554037536 3.0
vertex -8.27908014973734 10.9493399652176 4.75869343929958e-015
vertex -8.27908014973734 10.9493399652176 3.0
endloop
endfacet
facet normal 0.986599500090326 0.163160737990237 1.0871432547417e-016
outer loop
vertex -7.39510308495638 8.99975554037536 4.75869343929958e-015
vertex -7.04583638742164 6.88781149409022 3.0
vertex -7.04583638742164 6.88781149409022 4.0537018186626e-015
endloop
endfacet
facet normal 0.986599500090326 0.163160737990237 1.0871432547417e-016
outer loop
vertex -7.04583638742164 6.88781149409022 3.0
vertex -7.39510308495638 8.99975554037536 4.75869343929958e-015
vertex -7.39510308495638 8.99975554037536 3.0
endloop
endfacet
facet normal 0.995211043745986 -0.097749569850849 1.17029767202719e-016
outer loop
vertex -7.04583638742164 6.88781149409022 4.0537018186626e-015
vertex -7.25508200537962 4.75743332296391 3.0
vertex -7.25508200537962 4.75743332296391 4.0537018186626e-015
endloop
endfacet
facet normal 0.995211043745986 -0.097749569850849 1.17029767202719e-016
outer loop
vertex -7.25508200537962 4.75743332296391 3.0
vertex -7.04583638742164 6.88781149409022 4.0537018186626e-015
vertex -7.04583638742164 6.88781149409022 3.0
endloop
endfacet
facet normal 0.936000599434368 -0.351998406045402 1.17369823697237e-016
outer loop
vertex -7.25508200537962 4.75743332296391 4.0537018186626e-015
vertex -8.00858019576122 2.7538027787423 3.0
vertex -8.00858019576122 2.7538027787423 4.0537018186626e-015
endloop
endfacet
facet normal 0.936000599434368 -0.351998406045402 1.17369823697237e-016
outer loop
vertex -8.00858019576122 2.7538027787423 3.0
vertex -7.25508200537962 4.75743332296391 4.0537018186626e-015
vertex -7.25508200537962 4.75743332296391 3.0
endloop
endfacet
facet normal 0.813003261085425 -0.58225913257283 1.09711320669593e-016
outer loop
vertex -8.00858019576122 2.7538027787423 4.0537018186626e-015
vertex -9.25498130210656 1.01346397185808 3.0
vertex -9.25498130210656 1.01346397185808 4.0537018186626e-015
endloop
endfacet
facet normal 0.813003261085425 -0.58225913257283 1.09711320669593e-016
outer loop
vertex -9.25498130210656 1.01346397185808 3.0
vertex -8.00858019576122 2.7538027787423 4.0537018186626e-015
vertex -8.00858019576122 2.7538027787423 3.0
endloop
endfacet
facet normal 0.634601094044925 -0.772839861444132 9.45761724448464e-017
outer loop
vertex -9.25498130210656 1.01346397185808 3.0
vertex -10.9093451487934 -0.344981884045471 4.0537018186626e-015
vertex -9.25498130210656 1.01346397185808 4.0537018186626e-015
endloop
endfacet
facet normal 0.634601094044925 -0.772839861444132 9.45761724448464e-017
outer loop
vertex -10.9093451487934 -0.344981884045471 4.0537018186626e-015
vertex -9.25498130210656 1.01346397185808 3.0
vertex -10.9093451487934 -0.344981884045471 3.0
endloop
endfacet
facet normal 0.412951911173156 -0.910752830936274 7.29958143624982e-017
outer loop
vertex -10.9093451487934 -0.344981884045471 3.0
vertex -12.8589295736356 -1.22895894882644 4.0537018186626e-015
vertex -10.9093451487934 -0.344981884045471 4.0537018186626e-015
endloop
endfacet
facet normal 0.412951911173156 -0.910752830936274 7.29958143624982e-017
outer loop
vertex -12.8589295736356 -1.22895894882644 4.0537018186626e-015
vertex -10.9093451487934 -0.344981884045471 3.0
vertex -12.8589295736356 -1.22895894882644 3.0
endloop
endfacet
facet normal 0.163160737990236 -0.986599500090326 4.64409121626326e-017
outer loop
vertex -12.8589295736356 -1.22895894882644 3.0
vertex -13.3863487318177 -1.31618187877045 7.57865992184748e-015
vertex -12.8589295736356 -1.22895894882644 4.0537018186626e-015
endloop
endfacet
facet normal 0.163160737990236 -0.986599500090326 4.64409121626326e-017
outer loop
vertex -13.3863487318177 -1.31618187877045 7.57865992184748e-015
vertex -12.8589295736356 -1.22895894882644 3.0
vertex -13.3863487318177 -1.31618187877045 3.0
endloop
endfacet
facet normal 0.999295673409296 0.0375254194575089 1.1370021247717e-016
outer loop
vertex -13.3863487318177 -1.31618187877045 7.57865992184748e-015
vertex -13.2728595319635 -4.33838037868105 3.00000000000001
vertex -13.2728595319635 -4.33838037868105 1.03986264043954e-014
endloop
endfacet
facet normal 0.999295673409296 0.0375254194575089 1.1370021247717e-016
outer loop
vertex -13.2728595319635 -4.33838037868105 3.00000000000001
vertex -13.3863487318177 -1.31618187877045 7.57865992184748e-015
vertex -13.3863487318177 -1.31618187877045 3.0
endloop
endfacet
facet normal 0.955533205813901 0.294883523763213 1.01447968539247e-016
outer loop
vertex -13.2728595319635 -4.33838037868105 1.03986264043954e-014
vertex -11.8949166904758 -8.80343194871157 3.00000000000001
vertex -11.8949166904758 -8.80343194871157 1.03986264043954e-014
endloop
endfacet
facet normal 0.955533205813901 0.294883523763213 1.01447968539247e-016
outer loop
vertex -11.8949166904758 -8.80343194871157 3.00000000000001
vertex -13.2728595319635 -4.33838037868105 1.03986264043954e-014
vertex -13.2728595319635 -4.33838037868105 3.00000000000001
endloop
endfacet
facet normal 0.846652729335574 0.532145803242518 8.22822131960686e-017
outer loop
vertex -11.8949166904758 -8.80343194871157 1.03986264043954e-014
vertex -9.40828572904382 -12.7597027254769 3.00000000000001
vertex -9.40828572904382 -12.7597027254769 1.03986264043954e-014
endloop
endfacet
facet normal 0.846652729335574 0.532145803242518 8.22822131960686e-017
outer loop
vertex -9.40828572904382 -12.7597027254769 3.00000000000001
vertex -11.8949166904758 -8.80343194871157 1.03986264043954e-014
vertex -11.8949166904758 -8.80343194871157 3.00000000000001
endloop
endfacet
facet normal 0.680074268512816 0.733143225643365 5.7509061001365e-017
outer loop
vertex -9.40828572904382 -12.7597027254769 1.03986264043954e-014
vertex -5.98242643833728 -15.9375793935871 3.00000000000001
vertex -5.98242643833728 -15.9375793935871 9.6936347837584e-015
endloop
endfacet
facet normal 0.680074268512816 0.733143225643365 5.7509061001365e-017
outer loop
vertex -5.98242643833728 -15.9375793935871 3.00000000000001
vertex -9.40828572904382 -12.7597027254769 1.03986264043954e-014
vertex -9.40828572904382 -12.7597027254769 3.00000000000001
endloop
endfacet
facet normal 0.467149870166778 0.884178148793082 2.88167613376353e-017
outer loop
vertex -5.98242643833728 -15.9375793935871 3.00000000000001
vertex -1.85080546751765 -18.1204949097999 9.6936347837584e-015
vertex -5.98242643833728 -15.9375793935871 9.6936347837584e-015
endloop
endfacet
facet normal 0.467149870166778 0.884178148793082 2.88167613376353e-017
outer loop
vertex -1.85080546751765 -18.1204949097999 9.6936347837584e-015
vertex -5.98242643833728 -15.9375793935871 3.00000000000001
vertex -1.85080546751765 -18.1204949097999 3.00000000000001
endloop
endfacet
facet normal 0.222389980170536 0.974957792276029 -1.83935298930461e-018
outer loop
vertex -1.85080546751765 -18.1204949097999 3.00000000000001
vertex 2.70501404208023 -19.1596871891239 9.6936347837584e-015
vertex -1.85080546751765 -18.1204949097999 9.6936347837584e-015
endloop
endfacet
facet normal 0.222389980170536 0.974957792276029 -1.83935298930461e-018
outer loop
vertex 2.70501404208023 -19.1596871891239 9.6936347837584e-015
vertex -1.85080546751765 -18.1204949097999 3.00000000000001
vertex 2.70501404208023 -19.1596871891239 3.00000000000001
endloop
endfacet
facet normal -0.0375254194575086 0.999295673409296 -3.23701184496978e-017
outer loop
vertex 2.70501404208023 -19.1596871891239 3.00000000000001
vertex 7.37456051972497 -18.9843369950696 9.6936347837584e-015
vertex 2.70501404208023 -19.1596871891239 9.6936347837584e-015
endloop
endfacet
facet normal -0.0375254194575086 0.999295673409296 -3.23701184496978e-017
outer loop
vertex 7.37456051972497 -18.9843369950696 9.6936347837584e-015
vertex 2.70501404208023 -19.1596871891239 3.00000000000001
vertex 7.37456051972497 -18.9843369950696 3.00000000000001
endloop
endfacet
facet normal -0.294883523763213 0.955533205813901 -6.06949138318942e-017
outer loop
vertex 7.37456051972497 -18.9843369950696 3.00000000000001
vertex 11.8396120897555 -17.6063941535819 9.6936347837584e-015
vertex 7.37456051972497 -18.9843369950696 9.6936347837584e-015
endloop
endfacet
facet normal -0.294883523763213 0.955533205813901 -6.06949138318942e-017
outer loop
vertex 11.8396120897555 -17.6063941535819 9.6936347837584e-015
vertex 7.37456051972497 -18.9843369950696 3.00000000000001
vertex 11.8396120897555 -17.6063941535819 3.00000000000001
endloop
endfacet
facet normal -0.532145803242518 0.846652729335573 -8.48834511395346e-017
outer loop
vertex 11.8396120897555 -17.6063941535819 3.00000000000001
vertex 15.7958828665208 -15.1197631921499 9.6936347837584e-015
vertex 11.8396120897555 -17.6063941535819 9.6936347837584e-015
endloop
endfacet
facet normal -0.532145803242518 0.846652729335573 -8.48834511395346e-017
outer loop
vertex 15.7958828665208 -15.1197631921499 9.6936347837584e-015
vertex 11.8396120897555 -17.6063941535819 3.00000000000001
vertex 15.7958828665208 -15.1197631921499 3.00000000000001
endloop
endfacet
facet normal -0.733143225643365 0.680074268512816 -1.03287321528551e-016
outer loop
vertex 18.973759534631 -11.6939039014434 3.00000000000001
vertex 15.7958828665208 -15.1197631921499 9.6936347837584e-015
vertex 15.7958828665208 -15.1197631921499 3.00000000000001
endloop
endfacet
facet normal -0.733143225643365 0.680074268512816 -1.03287321528551e-016
outer loop
vertex 15.7958828665208 -15.1197631921499 9.6936347837584e-015
vertex 18.973759534631 -11.6939039014434 3.00000000000001
vertex 18.973759534631 -11.6939039014434 9.6936347837584e-015
endloop
endfacet
facet normal -0.884178148793082 0.467149870166779 -1.14652331645766e-016
outer loop
vertex 21.1566750508438 -7.56228293062375 3.00000000000001
vertex 18.973759534631 -11.6939039014434 9.6936347837584e-015
vertex 18.973759534631 -11.6939039014434 3.00000000000001
endloop
endfacet
facet normal -0.884178148793082 0.467149870166779 -1.14652331645766e-016
outer loop
vertex 18.973759534631 -11.6939039014434 9.6936347837584e-015
vertex 21.1566750508438 -7.56228293062375 3.00000000000001
vertex 21.1566750508438 -7.56228293062375 9.6936347837584e-015
endloop
endfacet
facet normal -0.974957792276029 0.222389980170536 -1.18203974833259e-016
outer loop
vertex 22.1958673301678 -3.00646342102587 7.2
vertex 21.9558164660412 -4.05884653803209 3.0
vertex 21.9558164660412 -4.05884653803209 7.2
endloop
endfacet
facet normal -0.974957792276029 0.222389980170536 -1.18203974833259e-016
outer loop
vertex 21.9558164660412 -4.05884653803209 3.0
vertex 21.1566750508438 -7.56228293062375 9.6936347837584e-015
vertex 21.1566750508438 -7.56228293062375 3.00000000000001
endloop
endfacet
facet normal -0.974957792276029 0.222389980170536 -1.18203974833259e-016
outer loop
vertex 21.1566750508438 -7.56228293062375 9.6936347837584e-015
vertex 21.9558164660412 -4.05884653803209 3.0
vertex 22.1958673301678 -3.00646342102587 1.03986264043954e-014
endloop
endfacet
facet normal -0.974957792276029 0.222389980170536 -1.18203974833259e-016
outer loop
vertex 22.1958673301678 -3.00646342102587 1.03986264043954e-014
vertex 21.9558164660412 -4.05884653803209 3.0
vertex 22.1958673301678 -3.00646342102587 7.2
endloop
endfacet
facet normal -0.999295673409296 -0.0375254194575088 7.0253466228329e-019
outer loop
vertex 22.0829690119226 -3.05419044941235e-015 7.2
vertex 22.1958673301678 -3.00646342102587 1.03986264043954e-014
vertex 22.1958673301678 -3.00646342102587 7.2
endloop
endfacet
facet normal -0.999295673409296 -0.0375254194575088 7.0253466228329e-019
outer loop
vertex 22.1958673301678 -3.00646342102587 1.03986264043954e-014
vertex 22.0829690119226 -3.05419044941235e-015 7.2
vertex 22.0829690119226 -3.18242304278837e-015 4.58244553414033e-015
endloop
endfacet
facet normal 1.34583625524433e-015 1.49640942750074e-017 1.0
outer loop
vertex 24.4656427159441 -4.05884653803209 7.19999999999999
vertex 22.1958673301678 -3.00646342102587 7.2
vertex 21.9558164660412 -4.05884653803209 7.2
endloop
endfacet
facet normal 1.34583625524433e-015 1.49640942750074e-017 1.0
outer loop
vertex 22.1958673301678 -3.00646342102587 7.2
vertex 25.0 -2.99876780191335e-015 7.19999999999999
vertex 22.0829690119226 -3.05419044941235e-015 7.2
endloop
endfacet
facet normal 1.34583625524433e-015 1.49640942750074e-017 1.0
outer loop
vertex 25.0 -2.99876780191335e-015 7.19999999999999
vertex 22.1958673301678 -3.00646342102587 7.2
vertex 24.4656427159441 -4.05884653803209 7.19999999999999
endloop
endfacet
facet normal 1.68132133843289e-032 -1.0 1.49640942750074e-017
outer loop
vertex 24.4656427159441 -4.05884653803209 7.19999999999999
vertex 21.9558164660412 -4.05884653803209 3.0
vertex 24.4656427159441 -4.05884653803209 3.0
endloop
endfacet
facet normal 1.68132133843289e-032 -1.0 1.49640942750074e-017
outer loop
vertex 21.9558164660412 -4.05884653803209 3.0
vertex 24.4656427159441 -4.05884653803209 7.19999999999999
vertex 21.9558164660412 -4.05884653803209 7.2
endloop
endfacet
facet normal -2.49455477679986e-017 1.0 -1.35049524890191e-017
outer loop
vertex 22.0829690119226 -3.18242304278837e-015 4.58244553414033e-015
vertex 25.0 -2.99876780191335e-015 7.19999999999999
vertex 25.0 -3.06161699786838e-015 0.0
endloop
endfacet
facet normal -2.49455477679986e-017 1.0 -1.35049524890191e-017
outer loop
vertex 25.0 -2.99876780191335e-015 7.19999999999999
vertex 22.0829690119226 -3.18242304278837e-015 4.58244553414033e-015
vertex 22.0829690119226 -3.05419044941235e-015 7.2
endloop
endfacet
facet normal -2.66872448307111e-017 5.13797935415052e-017 1.0
outer loop
vertex -17.6776695296637 -17.6776695296637 3.0
vertex -13.2728595319635 -4.33838037868105 3.00000000000001
vertex -13.3863487318177 -1.31618187877045 3.0
endloop
endfacet
facet normal -2.66872448307111e-017 5.13797935415052e-017 1.0
outer loop
vertex -13.2728595319635 -4.33838037868105 3.00000000000001
vertex -17.6776695296637 -17.6776695296637 3.0
vertex -12.5 -21.650635094611 3.0
endloop
endfacet
facet normal -2.66872448307111e-017 5.13797935415052e-017 1.0
outer loop
vertex -13.2728595319635 -4.33838037868105 3.00000000000001
vertex -12.5 -21.650635094611 3.0
vertex -11.8949166904758 -8.80343194871157 3.00000000000001
endloop
endfacet
facet normal -2.66872448307111e-017 5.13797935415052e-017 1.0
outer loop
vertex -11.8949166904758 -8.80343194871157 3.00000000000001
vertex -12.5 -21.650635094611 3.0
vertex -6.47047612756302 -24.1481456572267 3.0
endloop
endfacet
facet normal -2.66872448307111e-017 5.13797935415052e-017 1.0
outer loop
vertex -11.8949166904758 -8.80343194871157 3.00000000000001
vertex -6.47047612756302 -24.1481456572267 3.0
vertex -9.40828572904382 -12.7597027254769 3.00000000000001
endloop
endfacet
facet normal -2.66872448307111e-017 5.13797935415052e-017 1.0
outer loop
vertex -9.40828572904382 -12.7597027254769 3.00000000000001
vertex -6.47047612756302 -24.1481456572267 3.0
vertex -5.98242643833728 -15.9375793935871 3.00000000000001
endloop
endfacet
facet normal -2.66872448307111e-017 5.13797935415052e-017 1.0
outer loop
vertex -5.98242643833728 -15.9375793935871 3.00000000000001
vertex -6.47047612756302 -24.1481456572267 3.0
vertex -1.53080849893419e-015 -25.0 3.0
endloop
endfacet
facet normal -2.66872448307111e-017 5.13797935415052e-017 1.0
outer loop
vertex -5.98242643833728 -15.9375793935871 3.00000000000001
vertex -1.53080849893419e-015 -25.0 3.0
vertex -1.85080546751765 -18.1204949097999 3.00000000000001
endloop
endfacet
facet normal -2.66872448307111e-017 5.13797935415052e-017 1.0
outer loop
vertex -1.85080546751765 -18.1204949097999 3.00000000000001
vertex -1.53080849893419e-015 -25.0 3.0
vertex 2.70501404208023 -19.1596871891239 3.00000000000001
endloop
endfacet
facet normal -2.66872448307111e-017 5.13797935415052e-017 1.0
outer loop
vertex 2.70501404208023 -19.1596871891239 3.00000000000001
vertex -1.53080849893419e-015 -25.0 3.0
vertex 6.47047612756302 -24.1481456572267 3.0
endloop
endfacet
facet normal -2.66872448307111e-017 5.13797935415052e-017 1.0
outer loop
vertex 2.70501404208023 -19.1596871891239 3.00000000000001
vertex 6.47047612756302 -24.1481456572267 3.0
vertex 7.37456051972497 -18.9843369950696 3.00000000000001
endloop
endfacet
facet normal -2.66872448307111e-017 5.13797935415052e-017 1.0
outer loop
vertex 7.37456051972497 -18.9843369950696 3.00000000000001
vertex 6.47047612756302 -24.1481456572267 3.0
vertex 12.5 -21.650635094611 3.0
endloop
endfacet
facet normal -2.66872448307111e-017 5.13797935415052e-017 1.0
outer loop
vertex 7.37456051972497 -18.9843369950696 3.00000000000001
vertex 12.5 -21.650635094611 3.0
vertex 11.8396120897555 -17.6063941535819 3.00000000000001
endloop
endfacet
facet normal -2.66872448307111e-017 5.13797935415052e-017 1.0
outer loop
vertex 11.8396120897555 -17.6063941535819 3.00000000000001
vertex 12.5 -21.650635094611 3.0
vertex 15.7958828665208 -15.1197631921499 3.00000000000001
endloop
endfacet
facet normal -2.66872448307111e-017 5.13797935415052e-017 1.0
outer loop
vertex 15.7958828665208 -15.1197631921499 3.00000000000001
vertex 12.5 -21.650635094611 3.0
vertex 17.6776695296637 -17.6776695296637 3.0
endloop
endfacet
facet normal -2.66872448307111e-017 5.13797935415052e-017 1.0
outer loop
vertex 15.7958828665208 -15.1197631921499 3.00000000000001
vertex 17.6776695296637 -17.6776695296637 3.0
vertex 18.973759534631 -11.6939039014434 3.00000000000001
endloop
endfacet
facet normal -2.66872448307111e-017 5.13797935415052e-017 1.0
outer loop
vertex 18.973759534631 -11.6939039014434 3.00000000000001
vertex 17.6776695296637 -17.6776695296637 3.0
vertex 21.650635094611 -12.5 3.0
endloop
endfacet
facet normal -2.66872448307111e-017 5.13797935415052e-017 1.0
outer loop
vertex 18.973759534631 -11.6939039014434 3.00000000000001
vertex 21.650635094611 -12.5 3.0
vertex 21.1566750508438 -7.56228293062375 3.00000000000001
endloop
endfacet
facet normal -2.66872448307111e-017 5.13797935415052e-017 1.0
outer loop
vertex 21.1566750508438 -7.56228293062375 3.00000000000001
vertex 21.650635094611 -12.5 3.0
vertex 21.9558164660412 -4.05884653803209 3.0
endloop
endfacet
facet normal -2.66872448307111e-017 5.13797935415052e-017 1.0
outer loop
vertex 21.9558164660412 -4.05884653803209 3.0
vertex 21.650635094611 -12.5 3.0
vertex 24.1481456572267 -6.47047612756303 3.0
endloop
endfacet
facet normal -2.66872448307111e-017 5.13797935415052e-017 1.0
outer loop
vertex 21.9558164660412 -4.05884653803209 3.0
vertex 24.1481456572267 -6.47047612756303 3.0
vertex 24.4656427159441 -4.05884653803209 3.0
endloop
endfacet
facet normal -2.66872448307111e-017 5.13797935415052e-017 1.0
outer loop
vertex -24.1481456572267 -6.47047612756302 3.0
vertex -24.1481456572267 6.47047612756304 3.0
vertex -25.0 0.0 3.0
endloop
endfacet
facet normal -2.66872448307111e-017 5.13797935415052e-017 1.0
outer loop
vertex -24.1481456572267 6.47047612756304 3.0
vertex -24.1481456572267 -6.47047612756302 3.0
vertex -21.650635094611 -12.5 3.0
endloop
endfacet
facet normal -2.66872448307111e-017 5.13797935415052e-017 1.0
outer loop
vertex -24.1481456572267 6.47047612756304 3.0
vertex -21.650635094611 -12.5 3.0
vertex -22.4741669520326 10.4808203014859 3.0
endloop
endfacet
facet normal -2.66872448307111e-017 5.13797935415052e-017 1.0
outer loop
vertex -22.4741669520326 10.4808203014859 3.0
vertex -21.650635094611 -12.5 3.0
vertex -21.7185020942714 -9.33670862054664 2.99999747831721
endloop
endfacet
facet normal -2.66872448307111e-017 5.13797935415052e-017 1.0
outer loop
vertex -21.7185020942714 -9.33670862054664 2.99999747831721
vertex -21.650635094611 -12.5 3.0
vertex -19.1055350929013 -10.1206363650361 2.99999917688609
endloop
endfacet
facet normal -2.66872448307111e-017 5.13797935415052e-017 1.0
outer loop
vertex -19.1055350929013 -10.1206363650361 2.99999917688609
vertex -21.650635094611 -12.5 3.0
vertex -17.6776695296637 -17.6776695296637 3.0
endloop
endfacet
facet normal -2.66872448307111e-017 5.13797935415052e-017 1.0
outer loop
vertex -19.1055350929013 -10.1206363650361 2.99999917688609
vertex -17.6776695296637 -17.6776695296637 3.0
vertex -12.0776821397736 5.83171736179328 3.00000376586968
endloop
endfacet
facet normal -2.66872448307111e-017 5.13797935415052e-017 1.0
outer loop
vertex -12.0776821397736 5.83171736179328 3.00000376586968
vertex -17.6776695296637 -17.6776695296637 3.0
vertex -13.3863487318177 -1.31618187877045 3.0
endloop
endfacet
facet normal -2.66872448307111e-017 5.13797935415052e-017 1.0
outer loop
vertex -12.0776821397736 5.83171736179328 3.00000376586968
vertex -13.3863487318177 -1.31618187877045 3.0
vertex -12.8589295736356 -1.22895894882644 3.0
endloop
endfacet
facet normal -2.66872448307111e-017 5.13797935415052e-017 1.0
outer loop
vertex -12.0776821397736 5.83171736179328 3.00000376586968
vertex -12.8589295736356 -1.22895894882644 3.0
vertex -10.9093451487934 -0.344981884045471 3.0
endloop
endfacet
facet normal -2.66872448307111e-017 5.13797935415052e-017 1.0
outer loop
vertex -12.0776821397736 5.83171736179328 3.00000376586968
vertex -10.9093451487934 -0.344981884045471 3.0
vertex -11.6437179439997 6.78147977183908 3.00000404919562
endloop
endfacet
facet normal -2.66872448307111e-017 5.13797935415052e-017 1.0
outer loop
vertex -11.6437179439997 6.78147977183908 3.00000404919562
vertex -10.9093451487934 -0.344981884045471 3.0
vertex -11.4703573196593 7.81119801129979 3.00000416311723
endloop
endfacet
facet normal -2.66872448307111e-017 5.13797935415052e-017 1.0
outer loop
vertex -11.4703573196593 7.81119801129979 3.00000416311723
vertex -10.9093451487934 -0.344981884045471 3.0
vertex -11.3778648125251 13.8501049182498 3.0
endloop
endfacet
facet normal -2.66872448307111e-017 5.13797935415052e-017 1.0
outer loop
vertex -11.3778648125251 13.8501049182498 3.0
vertex -10.9093451487934 -0.344981884045471 3.0
vertex -9.6375260056409 12.6037038119044 3.0
endloop
endfacet
facet normal -2.66872448307111e-017 5.13797935415052e-017 1.0
outer loop
vertex -9.6375260056409 12.6037038119044 3.0
vertex -10.9093451487934 -0.344981884045471 3.0
vertex -9.25498130210656 1.01346397185808 3.0
endloop
endfacet
facet normal -2.66872448307111e-017 5.13797935415052e-017 1.0
outer loop
vertex -9.6375260056409 12.6037038119044 3.0
vertex -9.25498130210656 1.01346397185808 3.0
vertex -8.35235190729449 11.0385729266632 3.0
endloop
endfacet
facet normal -2.66872448307111e-017 5.13797935415052e-017 1.0
outer loop
vertex -8.35235190729449 11.0385729266632 3.0
vertex -9.25498130210656 1.01346397185808 3.0
vertex -8.00858019576122 2.7538027787423 3.0
endloop
endfacet
facet normal -2.66872448307111e-017 5.13797935415052e-017 1.0
outer loop
vertex -8.35235190729449 11.0385729266632 3.0
vertex -8.00858019576122 2.7538027787423 3.0
vertex -8.27908014973734 10.9493399652176 3.0
endloop
endfacet
facet normal -2.66872448307111e-017 5.13797935415052e-017 1.0
outer loop
vertex -8.27908014973734 10.9493399652176 3.0
vertex -8.00858019576122 2.7538027787423 3.0
vertex -7.39510308495638 8.99975554037536 3.0
endloop
endfacet
facet normal -2.66872448307111e-017 5.13797935415052e-017 1.0
outer loop
vertex -7.39510308495638 8.99975554037536 3.0
vertex -8.00858019576122 2.7538027787423 3.0
vertex -7.25508200537962 4.75743332296391 3.0
endloop
endfacet
facet normal -2.66872448307111e-017 5.13797935415052e-017 1.0
outer loop
vertex -7.39510308495638 8.99975554037536 3.0
vertex -7.25508200537962 4.75743332296391 3.0
vertex -7.04583638742164 6.88781149409022 3.0
endloop
endfacet
facet normal -2.66872448307111e-017 5.13797935415052e-017 1.0
outer loop
vertex -21.7185020942714 -9.33670862054664 2.99999747831721
vertex -21.2277658456873 12.2211591083701 3.0
vertex -22.4741669520326 10.4808203014859 3.0
endloop
endfacet
facet normal -2.66872448307111e-017 5.13797935415052e-017 1.0
outer loop
vertex -21.2277658456873 12.2211591083701 3.0
vertex -21.7185020942714 -9.33670862054664 2.99999747831721
vertex -19.4492181348844 7.93052448187941 2.99999897384732
endloop
endfacet
facet normal -2.66872448307111e-017 5.13797935415052e-017 1.0
outer loop
vertex -21.2277658456873 12.2211591083701 3.0
vertex -19.4492181348844 7.93052448187941 2.99999897384732
vertex -19.5734019990004 13.5796049642737 3.0
endloop
endfacet
facet normal -2.66872448307111e-017 5.13797935415052e-017 1.0
outer loop
vertex -19.5734019990004 13.5796049642737 3.0
vertex -19.4492181348844 7.93052448187941 2.99999897384732
vertex -19.2918438719895 9.12800268661885 2.99999907756195
endloop
endfacet
facet normal -2.66872448307111e-017 5.13797935415052e-017 1.0
outer loop
vertex -19.5734019990004 13.5796049642737 3.0
vertex -19.2918438719895 9.12800268661885 2.99999907756195
vertex -17.6238175741582 14.4635820290546 3.0
endloop
endfacet
facet normal -2.66872448307111e-017 5.13797935415052e-017 1.0
outer loop
vertex -17.6238175741582 14.4635820290546 3.0
vertex -19.2918438719895 9.12800268661885 2.99999907756195
vertex -18.8578796762155 10.0777650966647 2.9999993608879
endloop
endfacet
facet normal -2.66872448307111e-017 5.13797935415052e-017 1.0
outer loop
vertex -17.6238175741582 14.4635820290546 3.0
vertex -18.8578796762155 10.0777650966647 2.9999993608879
vertex -18.1928858517906 10.8828469386076 2.99999979430991
endloop
endfacet
facet normal -2.66872448307111e-017 5.13797935415052e-017 1.0
outer loop
vertex -17.6238175741582 14.4635820290546 3.0
vertex -18.1928858517906 10.8828469386076 2.99999979430991
vertex -17.3421806288947 11.4883832153799 3.00000034829116
endloop
endfacet
facet normal -2.66872448307111e-017 5.13797935415052e-017 1.0
outer loop
vertex -17.6238175741582 14.4635820290546 3.0
vertex -17.3421806288947 11.4883832153799 3.00000034829116
vertex -15.511873527873 14.8128487265894 3.0
endloop
endfacet
facet normal -2.66872448307111e-017 5.13797935415052e-017 1.0
outer loop
vertex -15.511873527873 14.8128487265894 3.0
vertex -17.3421806288947 11.4883832153799 3.00000034829116
vertex -16.3637381626115 11.8531076304154 3.00000098507853
endloop
endfacet
facet normal -2.66872448307111e-017 5.13797935415052e-017 1.0
outer loop
vertex -15.511873527873 14.8128487265894 3.0
vertex -16.3637381626115 11.8531076304154 3.00000098507853
vertex -15.3242376900655 11.9521648175652 3.00000166127611
endloop
endfacet
facet normal -2.66872448307111e-017 5.13797935415052e-017 1.0
outer loop
vertex -15.511873527873 14.8128487265894 3.0
vertex -15.3242376900655 11.9521648175652 3.00000166127611
vertex -13.3814953567467 14.6036031086314 3.0
endloop
endfacet
facet normal -2.66872448307111e-017 5.13797935415052e-017 1.0
outer loop
vertex -13.3814953567467 14.6036031086314 3.0
vertex -15.3242376900655 11.9521648175652 3.00000166127611
vertex -14.294519450605 11.7788041932247 3.00000233080222
endloop
endfacet
facet normal -2.66872448307111e-017 5.13797935415052e-017 1.0
outer loop
vertex -13.3814953567467 14.6036031086314 3.0
vertex -14.294519450605 11.7788041932247 3.00000233080222
vertex -13.3447570405594 11.3448399974506 3.00000294802957
endloop
endfacet
facet normal -2.66872448307111e-017 5.13797935415052e-017 1.0
outer loop
vertex -13.3814953567467 14.6036031086314 3.0
vertex -13.3447570405594 11.3448399974506 3.00000294802957
vertex -11.3778648125251 13.8501049182498 3.0
endloop
endfacet
facet normal -2.66872448307111e-017 5.13797935415052e-017 1.0
outer loop
vertex -11.3778648125251 13.8501049182498 3.0
vertex -13.3447570405594 11.3448399974506 3.00000294802957
vertex -12.5396751986166 10.6798461730255 3.00000347089533
endloop
endfacet
facet normal -2.66872448307111e-017 5.13797935415052e-017 1.0
outer loop
vertex -11.3778648125251 13.8501049182498 3.0
vertex -12.5396751986166 10.6798461730255 3.00000347089533
vertex -11.9341389218445 9.82914095012954 3.00000386376707
endloop
endfacet
facet normal -2.66872448307111e-017 5.13797935415052e-017 1.0
outer loop
vertex -11.3778648125251 13.8501049182498 3.0
vertex -11.9341389218445 9.82914095012954 3.00000386376707
vertex -11.569414506809 8.85069848384609 3.00000409987105
endloop
endfacet
facet normal -2.66872448307111e-017 5.13797935415052e-017 1.0
outer loop
vertex -11.3778648125251 13.8501049182498 3.0
vertex -11.569414506809 8.85069848384609 3.00000409987105
vertex -11.4703573196593 7.81119801129979 3.00000416311723
endloop
endfacet
facet normal -6.5039427576884e-007 -1.13514573471397e-009 0.999999999999789
outer loop
vertex -19.105534442507 -10.1206363639009 1.9999991768863
vertex -19.4492174844902 7.93052448301456 1.99999897384754
vertex -21.7185014438772 -9.33670861941149 1.99999747831742
endloop
endfacet
facet normal -6.5039427576884e-007 -1.13514573471397e-009 0.999999999999789
outer loop
vertex -19.4492174844902 7.93052448301456 1.99999897384754
vertex -19.105534442507 -10.1206363639009 1.9999991768863
vertex -19.3661466587859 7.05878397574707 1.99999902688679
endloop
endfacet
facet normal -6.5039427576884e-007 -1.13514573471397e-009 0.999999999999789
outer loop
vertex -19.3661466587859 7.05878397574707 1.99999902688679
vertex -19.105534442507 -10.1206363639009 1.9999991768863
vertex -19.0014222437504 6.08034150946365 1.99999926299075
endloop
endfacet
facet normal -6.5039427576884e-007 -1.13514573471397e-009 0.999999999999789
outer loop
vertex -19.0014222437504 6.08034150946365 1.99999926299075
vertex -19.105534442507 -10.1206363639009 1.9999991768863
vertex -18.3958859669783 5.22963628656759 1.9999996558624
endloop
endfacet
facet normal -6.5039427576884e-007 -1.13514573471397e-009 0.999999999999789
outer loop
vertex -18.3958859669783 5.22963628656759 1.9999996558624
vertex -19.105534442507 -10.1206363639009 1.9999991768863
vertex -17.5908041250356 4.56464246214237 2.00000017872812
endloop
endfacet
facet normal -6.5039427576884e-007 -1.13514573471397e-009 0.999999999999789
outer loop
vertex -17.5908041250356 4.56464246214237 2.00000017872812
vertex -19.105534442507 -10.1206363639009 1.9999991768863
vertex -16.6410417149899 4.13067826636849 2.0000007959556
endloop
endfacet
facet normal -6.5039427576884e-007 -1.13514573471397e-009 0.999999999999789
outer loop
vertex -16.6410417149899 4.13067826636849 2.0000007959556
vertex -19.105534442507 -10.1206363639009 1.9999991768863
vertex -15.6113234755294 3.95731764202796 2.0000014654816
endloop
endfacet
facet normal -6.5039427576884e-007 -1.13514573471397e-009 0.999999999999789
outer loop
vertex -15.6113234755294 3.95731764202796 2.0000014654816
vertex -19.105534442507 -10.1206363639009 1.9999991768863
vertex -14.5718230029834 4.05637482917764 2.00000214167924
endloop
endfacet
facet normal -6.5039427576884e-007 -1.13514573471397e-009 0.999999999999789
outer loop
vertex -14.5718230029834 4.05637482917764 2.00000214167924
vertex -19.105534442507 -10.1206363639009 1.9999991768863
vertex -13.5933805367002 4.42109924421335 2.0000027784667
endloop
endfacet
facet normal -6.5039427576884e-007 -1.13514573471397e-009 0.999999999999789
outer loop
vertex -13.5933805367002 4.42109924421335 2.0000027784667
vertex -19.105534442507 -10.1206363639009 1.9999991768863
vertex -12.7426753138044 5.02663552098555 2.00000333244783
endloop
endfacet
facet normal -6.5039427576884e-007 -1.13514573471397e-009 0.999999999999789
outer loop
vertex -12.7426753138044 5.02663552098555 2.00000333244783
vertex -19.105534442507 -10.1206363639009 1.9999991768863
vertex -12.0776814893793 5.83171736292843 2.00000376586989
endloop
endfacet
facet normal 0.991474486973243 -0.130300965770519 6.44701419452481e-007
outer loop
vertex -21.7185014438772 -9.33670861941149 1.99999747831742
vertex -19.4492181348844 7.93052448187941 2.99999897384732
vertex -21.7185020942714 -9.33670862054664 2.99999747831721
endloop
endfacet
facet normal 0.991474486973243 -0.130300965770519 6.44701419452481e-007
outer loop
vertex -19.4492181348844 7.93052448187941 2.99999897384732
vertex -21.7185014438772 -9.33670861941149 1.99999747831742
vertex -19.4492174844902 7.93052448301456 1.99999897384754
endloop
endfacet
facet normal 0.287360545178772 0.957822487246214 1.87984921777137e-007
outer loop
vertex -21.7185020942714 -9.33670862054664 2.99999747831721
vertex -19.105534442507 -10.1206363639009 1.9999991768863
vertex -21.7185014438772 -9.33670861941149 1.99999747831742
endloop
endfacet
facet normal 0.287360545178772 0.957822487246214 1.87984921777137e-007
outer loop
vertex -19.105534442507 -10.1206363639009 1.9999991768863
vertex -21.7185020942714 -9.33670862054664 2.99999747831721
vertex -19.1055350929013 -10.1206363650361 2.99999917688609
endloop
endfacet
facet normal -0.915128473568033 0.403162345544184 -5.94736673396312e-007
outer loop
vertex -12.0776821397736 5.83171736179328 3.00000376586968
vertex -19.105534442507 -10.1206363639009 1.9999991768863
vertex -19.1055350929013 -10.1206363650361 2.99999917688609
endloop
endfacet
facet normal -0.915128473568033 0.403162345544184 -5.94736673396312e-007
outer loop
vertex -19.105534442507 -10.1206363639009 1.9999991768863
vertex -12.0776821397736 5.83171736179328 3.00000376586968
vertex -12.0776814893793 5.83171736292843 2.00000376586989
endloop
endfacet
facet normal -6.50394277878728e-007 -1.13515069119556e-009 0.999999999999789
outer loop
vertex -19.3661466587859 7.05878397574707 1.99999902688679
vertex -19.2918432215952 9.12800268775399 1.9999990775622
vertex -19.4492174844902 7.93052448301456 1.99999897384754
endloop
endfacet
facet normal -6.50394277878728e-007 -1.13515069119556e-009 0.999999999999789
outer loop
vertex -19.2918432215952 9.12800268775399 1.9999990775622
vertex -19.3661466587859 7.05878397574707 1.99999902688679
vertex -19.0014222437504 6.08034150946365 1.99999926299075
endloop
endfacet
facet normal -6.50394277878728e-007 -1.13515069119556e-009 0.999999999999789
outer loop
vertex -19.2918432215952 9.12800268775399 1.9999990775622
vertex -19.0014222437504 6.08034150946365 1.99999926299075
vertex -18.8578790258213 10.0777650977999 1.99999936088814
endloop
endfacet
facet normal -6.50394277878728e-007 -1.13515069119556e-009 0.999999999999789
outer loop
vertex -18.8578790258213 10.0777650977999 1.99999936088814
vertex -19.0014222437504 6.08034150946365 1.99999926299075
vertex -18.3958859669783 5.22963628656759 1.9999996558624
endloop
endfacet
facet normal -6.50394277878728e-007 -1.13515069119556e-009 0.999999999999789
outer loop
vertex -18.8578790258213 10.0777650977999 1.99999936088814
vertex -18.3958859669783 5.22963628656759 1.9999996558624
vertex -18.1928852013963 10.8828469397427 1.99999979431015
endloop
endfacet
facet normal -6.50394277878728e-007 -1.13515069119556e-009 0.999999999999789
outer loop
vertex -18.1928852013963 10.8828469397427 1.99999979431015
vertex -18.3958859669783 5.22963628656759 1.9999996558624
vertex -17.5908041250356 4.56464246214237 2.00000017872812
endloop
endfacet
facet normal -6.50394277878728e-007 -1.13515069119556e-009 0.999999999999789
outer loop
vertex -18.1928852013963 10.8828469397427 1.99999979431015
vertex -17.5908041250356 4.56464246214237 2.00000017872812
vertex -17.3421799785004 11.488383216515 2.0000003482914
endloop
endfacet
facet normal -6.50394277878728e-007 -1.13515069119556e-009 0.999999999999789
outer loop
vertex -17.3421799785004 11.488383216515 2.0000003482914
vertex -17.5908041250356 4.56464246214237 2.00000017872812
vertex -16.6410417149899 4.13067826636849 2.0000007959556
endloop
endfacet
facet normal -6.50394277878728e-007 -1.13515069119556e-009 0.999999999999789
outer loop
vertex -17.3421799785004 11.488383216515 2.0000003482914
vertex -16.6410417149899 4.13067826636849 2.0000007959556
vertex -16.3637375122172 11.8531076315506 2.00000098507877
endloop
endfacet
facet normal -6.50394277878728e-007 -1.13515069119556e-009 0.999999999999789
outer loop
vertex -16.3637375122172 11.8531076315506 2.00000098507877
vertex -16.6410417149899 4.13067826636849 2.0000007959556
vertex -15.6113234755294 3.95731764202796 2.0000014654816
endloop
endfacet
facet normal -6.50394277878728e-007 -1.13515069119556e-009 0.999999999999789
outer loop
vertex -16.3637375122172 11.8531076315506 2.00000098507877
vertex -15.6113234755294 3.95731764202796 2.0000014654816
vertex -16.0008306863437 8.05994104266956 2.00000121680548
endloop
endfacet
facet normal -6.50394277878728e-007 -1.13515069119556e-009 0.999999999999789
outer loop
vertex -16.3637375122172 11.8531076315506 2.00000098507877
vertex -16.0008306863437 8.05994104266956 2.00000121680548
vertex -16.0101834327654 8.24243821078754 2.00000121092967
endloop
endfacet
facet normal -6.50394277878728e-007 -1.13515069119556e-009 0.999999999999789
outer loop
vertex -16.0008306863437 8.05994104266956 2.00000121680548
vertex -15.6113234755294 3.95731764202796 2.0000014654816
vertex -15.944562884242 7.88608298365773 2.00000125320441
endloop
endfacet
facet normal -6.50394277878728e-007 -1.13515069119556e-009 0.999999999999789
outer loop
vertex -15.944562884242 7.88608298365773 2.00000125320441
vertex -15.6113234755294 3.95731764202796 2.0000014654816
vertex -15.8452145841867 7.73271217315966 2.00000131764587
endloop
endfacet
facet normal -6.50394277878728e-007 -1.13515069119556e-009 0.999999999999789
outer loop
vertex -15.8452145841867 7.73271217315966 2.00000131764587
vertex -15.6113234755294 3.95731764202796 2.0000014654816
vertex -15.7095562086456 7.61028057845373 2.00000140573839
endloop
endfacet
facet normal -6.50394277878728e-007 -1.13515069119556e-009 0.999999999999789
outer loop
vertex -15.7095562086456 7.61028057845373 2.00000140573839
vertex -15.6113234755294 3.95731764202796 2.0000014654816
vertex -15.5468326517259 7.527131710391 2.00000151147834
endloop
endfacet
facet normal -6.50394277878728e-007 -1.13515069119556e-009 0.999999999999789
outer loop
vertex -15.5468326517259 7.527131710391 2.00000151147834
vertex -15.6113234755294 3.95731764202796 2.0000014654816
vertex -14.5718230029834 4.05637482917764 2.00000214167924
endloop
endfacet
facet normal -6.50394277878728e-007 -1.13515069119556e-009 0.999999999999789
outer loop
vertex -15.5468326517259 7.527131710391 2.00000151147834
vertex -14.5718230029834 4.05637482917764 2.00000214167924
vertex -15.3681332549182 7.48893202692032 2.00000162766011
endloop
endfacet
facet normal -6.50394277878728e-007 -1.13515069119556e-009 0.999999999999789
outer loop
vertex -15.3681332549182 7.48893202692032 2.00000162766011
vertex -14.5718230029834 4.05637482917764 2.00000214167924
vertex -15.1856360868002 7.4982847733421 2.00000174636584
endloop
endfacet
facet normal -6.50394277878728e-007 -1.13515069119556e-009 0.999999999999789
outer loop
vertex -15.1856360868002 7.4982847733421 2.00000174636584
vertex -14.5718230029834 4.05637482917764 2.00000214167924
vertex -15.0117780277884 7.55455257544379 2.00000185950598
endloop
endfacet
facet normal -6.50394277878728e-007 -1.13515069119556e-009 0.999999999999789
outer loop
vertex -15.0117780277884 7.55455257544379 2.00000185950598
vertex -14.5718230029834 4.05637482917764 2.00000214167924
vertex -14.8584072172904 7.65390087549925 2.0000019593703
endloop
endfacet
facet normal -6.50394277878728e-007 -1.13515069119556e-009 0.999999999999789
outer loop
vertex -14.8584072172904 7.65390087549925 2.0000019593703
vertex -14.5718230029834 4.05637482917764 2.00000214167924
vertex -14.7359756225844 7.78955925104028 2.00000203915305
endloop
endfacet
facet normal -6.50394277878728e-007 -1.13515069119556e-009 0.999999999999789
outer loop
vertex -14.7359756225844 7.78955925104028 2.00000203915305
vertex -14.5718230029834 4.05637482917764 2.00000214167924
vertex -14.6528267545218 7.95228280796003 2.00000209341732
endloop
endfacet
facet normal -6.50394277878728e-007 -1.13515069119556e-009 0.999999999999789
outer loop
vertex -14.6528267545218 7.95228280796003 2.00000209341732
vertex -14.5718230029834 4.05637482917764 2.00000214167924
vertex -14.6146270710512 8.13098220476769 2.00000211846502
endloop
endfacet
facet normal -6.50394277878728e-007 -1.13515069119556e-009 0.999999999999789
outer loop
vertex -16.0101834327654 8.24243821078754 2.00000121092967
vertex -15.3242370396712 11.9521648187003 2.00000166127635
vertex -16.3637375122172 11.8531076315506 2.00000098507877
endloop
endfacet
facet normal -6.50394277878728e-007 -1.13515069119556e-009 0.999999999999789
outer loop
vertex -15.3242370396712 11.9521648187003 2.00000166127635
vertex -16.0101834327654 8.24243821078754 2.00000121092967
vertex -15.9719837492947 8.42113760759528 2.00000123597737
endloop
endfacet
facet normal -6.50394277878728e-007 -1.13515069119556e-009 0.999999999999789
outer loop
vertex -15.3242370396712 11.9521648187003 2.00000166127635
vertex -15.9719837492947 8.42113760759528 2.00000123597737
vertex -15.8888348812322 8.583861164515 2.00000129024162
endloop
endfacet
facet normal -6.50394277878728e-007 -1.13515069119556e-009 0.999999999999789
outer loop
vertex -15.3242370396712 11.9521648187003 2.00000166127635
vertex -15.8888348812322 8.583861164515 2.00000129024162
vertex -15.7664032865261 8.7195195400561 2.00000137002442
endloop
endfacet
facet normal -6.50394277878728e-007 -1.13515069119556e-009 0.999999999999789
outer loop
vertex -15.3242370396712 11.9521648187003 2.00000166127635
vertex -15.7664032865261 8.7195195400561 2.00000137002442
vertex -15.6130324760281 8.81886784011151 2.00000146988875
endloop
endfacet
facet normal -6.50394277878728e-007 -1.13515069119556e-009 0.999999999999789
outer loop
vertex -15.3242370396712 11.9521648187003 2.00000166127635
vertex -15.6130324760281 8.81886784011151 2.00000146988875
vertex -15.4391744170164 8.87513564221319 2.00000158302888
endloop
endfacet
facet normal -6.50394277878728e-007 -1.13515069119556e-009 0.999999999999789
outer loop
vertex -15.3242370396712 11.9521648187003 2.00000166127635
vertex -15.4391744170164 8.87513564221319 2.00000158302888
vertex -15.2566772488984 8.88448838863492 2.0000017017346
endloop
endfacet
facet normal -6.50394277878728e-007 -1.13515069119556e-009 0.999999999999789
outer loop
vertex -15.3242370396712 11.9521648187003 2.00000166127635
vertex -15.2566772488984 8.88448838863492 2.0000017017346
vertex -14.2945188002107 11.7788041943599 2.00000233080246
endloop
endfacet
facet normal -6.50394277878728e-007 -1.13515069119556e-009 0.999999999999789
outer loop
vertex -14.2945188002107 11.7788041943599 2.00000233080246
vertex -15.2566772488984 8.88448838863492 2.0000017017346
vertex -15.0779778520907 8.84628870516419 2.0000018179163
endloop
endfacet
facet normal -6.50394277878728e-007 -1.13515069119556e-009 0.999999999999789
outer loop
vertex -14.2945188002107 11.7788041943599 2.00000233080246
vertex -15.0779778520907 8.84628870516419 2.0000018179163
vertex -14.915254295171 8.76313983710155 2.00000192365635
endloop
endfacet
facet normal -6.50394277878728e-007 -1.13515069119556e-009 0.999999999999789
outer loop
vertex -14.2945188002107 11.7788041943599 2.00000233080246
vertex -14.915254295171 8.76313983710155 2.00000192365635
vertex -14.7795959196299 8.64070824239556 2.00000201174885
endloop
endfacet
facet normal -6.50394277878728e-007 -1.13515069119556e-009 0.999999999999789
outer loop
vertex -14.2945188002107 11.7788041943599 2.00000233080246
vertex -14.7795959196299 8.64070824239556 2.00000201174885
vertex -14.6802476195745 8.48733743189761 2.00000207619034
endloop
endfacet
facet normal -6.50394277878728e-007 -1.13515069119556e-009 0.999999999999789
outer loop
vertex -14.2945188002107 11.7788041943599 2.00000233080246
vertex -14.6802476195745 8.48733743189761 2.00000207619034
vertex -14.6239798174729 8.3134793728857 2.00000211258922
endloop
endfacet
facet normal -6.50394277878728e-007 -1.13515069119556e-009 0.999999999999789
outer loop
vertex -14.2945188002107 11.7788041943599 2.00000233080246
vertex -14.6239798174729 8.3134793728857 2.00000211258922
vertex -14.6146270710512 8.13098220476769 2.00000211846502
endloop
endfacet
facet normal -6.50394277878728e-007 -1.13515069119556e-009 0.999999999999789
outer loop
vertex -14.2945188002107 11.7788041943599 2.00000233080246
vertex -14.6146270710512 8.13098220476769 2.00000211846502
vertex -14.5718230029834 4.05637482917764 2.00000214167924
endloop
endfacet
facet normal -6.50394277878728e-007 -1.13515069119556e-009 0.999999999999789
outer loop
vertex -14.2945188002107 11.7788041943599 2.00000233080246
vertex -14.5718230029834 4.05637482917764 2.00000214167924
vertex -13.5933805367002 4.42109924421335 2.0000027784667
endloop
endfacet
facet normal -6.50394277878728e-007 -1.13515069119556e-009 0.999999999999789
outer loop
vertex -14.2945188002107 11.7788041943599 2.00000233080246
vertex -13.5933805367002 4.42109924421335 2.0000027784667
vertex -13.3447563901651 11.3448399985858 2.00000294802982
endloop
endfacet
facet normal -6.50394277878728e-007 -1.13515069119556e-009 0.999999999999789
outer loop
vertex -13.3447563901651 11.3448399985858 2.00000294802982
vertex -13.5933805367002 4.42109924421335 2.0000027784667
vertex -12.7426753138044 5.02663552098555 2.00000333244783
endloop
endfacet
facet normal -6.50394277878728e-007 -1.13515069119556e-009 0.999999999999789
outer loop
vertex -13.3447563901651 11.3448399985858 2.00000294802982
vertex -12.7426753138044 5.02663552098555 2.00000333244783
vertex -12.5396745482224 10.6798461741606 2.00000347089557
endloop
endfacet
facet normal -6.50394277878728e-007 -1.13515069119556e-009 0.999999999999789
outer loop
vertex -12.5396745482224 10.6798461741606 2.00000347089557
vertex -12.7426753138044 5.02663552098555 2.00000333244783
vertex -12.0776814893793 5.83171736292843 2.00000376586989
endloop
endfacet
facet normal -6.50394277878728e-007 -1.13515069119556e-009 0.999999999999789
outer loop
vertex -12.5396745482224 10.6798461741606 2.00000347089557
vertex -12.0776814893793 5.83171736292843 2.00000376586989
vertex -11.9341382714502 9.82914095126469 2.00000386376731
endloop
endfacet
facet normal -6.50394277878728e-007 -1.13515069119556e-009 0.999999999999789
outer loop
vertex -11.9341382714502 9.82914095126469 2.00000386376731
vertex -12.0776814893793 5.83171736292843 2.00000376586989
vertex -11.6437172936054 6.78147977297423 2.00000404919586
endloop
endfacet
facet normal -6.50394277878728e-007 -1.13515069119556e-009 0.999999999999789
outer loop
vertex -11.9341382714502 9.82914095126469 2.00000386376731
vertex -11.6437172936054 6.78147977297423 2.00000404919586
vertex -11.5694138564147 8.85069848498124 2.00000409987129
endloop
endfacet
facet normal -6.50394277878728e-007 -1.13515069119556e-009 0.999999999999789
outer loop
vertex -11.5694138564147 8.85069848498124 2.00000409987129
vertex -11.6437172936054 6.78147977297423 2.00000404919586
vertex -11.470356669265 7.81119801243494 2.00000416311747
endloop
endfacet
facet normal 0.909551556177736 -0.415591105119335 5.91095369703899e-007
outer loop
vertex -19.2918432215952 9.12800268775399 1.9999990775622
vertex -18.8578796762155 10.0777650966647 2.9999993608879
vertex -19.2918438719895 9.12800268661885 2.99999907756195
endloop
endfacet
facet normal 0.909551556177736 -0.415591105119335 5.91095369703899e-007
outer loop
vertex -18.8578796762155 10.0777650966647 2.9999993608879
vertex -19.2918432215952 9.12800268775399 1.9999990775622
vertex -18.8578790258213 10.0777650977999 1.99999936088814
endloop
endfacet
facet normal 0.991474486973246 -0.130300965770489 6.44701420890349e-007
outer loop
vertex -19.4492174844902 7.93052448301456 1.99999897384754
vertex -19.2918438719895 9.12800268661885 2.99999907756195
vertex -19.4492181348844 7.93052448187941 2.99999897384732
endloop
endfacet
facet normal 0.991474486973246 -0.130300965770489 6.44701420890349e-007
outer loop
vertex -19.2918438719895 9.12800268661885 2.99999907756195
vertex -19.4492174844902 7.93052448301456 1.99999897384754
vertex -19.2918432215952 9.12800268775399 1.9999990775622
endloop
endfacet
facet normal -0.909551556177735 0.415591105119337 -5.9109536955824e-007
outer loop
vertex -11.6437179439997 6.78147977183908 3.00000404919562
vertex -12.0776814893793 5.83171736292843 2.00000376586989
vertex -12.0776821397736 5.83171736179328 3.00000376586968
endloop
endfacet
facet normal -0.909551556177735 0.415591105119337 -5.9109536955824e-007
outer loop
vertex -12.0776814893793 5.83171736292843 2.00000376586989
vertex -11.6437179439997 6.78147977183908 3.00000404919562
vertex -11.6437172936054 6.78147977297423 2.00000404919586
endloop
endfacet
facet normal -0.986122231433566 0.166020916369211 -6.41179797233185e-007
outer loop
vertex -11.4703573196593 7.81119801129979 3.00000416311723
vertex -11.6437172936054 6.78147977297423 2.00000404919586
vertex -11.6437179439997 6.78147977183908 3.00000404919562
endloop
endfacet
facet normal -0.986122231433566 0.166020916369211 -6.41179797233185e-007
outer loop
vertex -11.6437172936054 6.78147977297423 2.00000404919586
vertex -11.4703573196593 7.81119801129979 3.00000416311723
vertex -11.470356669265 7.81119801243494 2.00000416311747
endloop
endfacet
facet normal -0.995490306261212 -0.0948633234687615 -6.47568881180726e-007
outer loop
vertex -11.569414506809 8.85069848384609 3.00000409987105
vertex -11.470356669265 7.81119801243494 2.00000416311747
vertex -11.4703573196593 7.81119801129979 3.00000416311723
endloop
endfacet
facet normal -0.995490306261212 -0.0948633234687615 -6.47568881180726e-007
outer loop
vertex -11.470356669265 7.81119801243494 2.00000416311747
vertex -11.569414506809 8.85069848384609 3.00000409987105
vertex -11.5694138564147 8.85069848498124 2.00000409987129
endloop
endfacet
facet normal -0.937017361842685 -0.349282784581494 -6.09827216033985e-007
outer loop
vertex -11.9341389218445 9.82914095012954 3.00000386376707
vertex -11.5694138564147 8.85069848498124 2.00000409987129
vertex -11.569414506809 8.85069848384609 3.00000409987105
endloop
endfacet
facet normal -0.937017361842685 -0.349282784581494 -6.09827216033985e-007
outer loop
vertex -11.5694138564147 8.85069848498124 2.00000409987129
vertex -11.9341389218445 9.82914095012954 3.00000386376707
vertex -11.9341382714502 9.82914095126469 2.00000386376731
endloop
endfacet
facet normal -0.814688232708899 -0.579899201142206 -5.30526833901596e-007
outer loop
vertex -12.5396751986166 10.6798461730255 3.00000347089533
vertex -11.9341382714502 9.82914095126469 2.00000386376731
vertex -11.9341389218445 9.82914095012954 3.00000386376707
endloop
endfacet
facet normal -0.814688232708899 -0.579899201142206 -5.30526833901596e-007
outer loop
vertex -11.9341382714502 9.82914095126469 2.00000386376731
vertex -12.5396751986166 10.6798461730255 3.00000347089533
vertex -12.5396745482224 10.6798461741606 2.00000347089557
endloop
endfacet
facet normal -0.636839446852102 -0.770996445473607 -4.1507192477595e-007
outer loop
vertex -12.5396745482224 10.6798461741606 2.00000347089557
vertex -13.3447570405594 11.3448399974506 3.00000294802957
vertex -13.3447563901651 11.3448399985858 2.00000294802982
endloop
endfacet
facet normal -0.636839446852102 -0.770996445473607 -4.1507192477595e-007
outer loop
vertex -13.3447570405594 11.3448399974506 3.00000294802957
vertex -12.5396745482224 10.6798461741606 2.00000347089557
vertex -12.5396751986166 10.6798461730255 3.00000347089533
endloop
endfacet
facet normal -0.415591105119318 -0.909551556177895 -2.71330549915635e-007
outer loop
vertex -13.3447563901651 11.3448399985858 2.00000294802982
vertex -14.294519450605 11.7788041932247 3.00000233080222
vertex -14.2945188002107 11.7788041943599 2.00000233080246
endloop
endfacet
facet normal -0.415591105119318 -0.909551556177895 -2.71330549915635e-007
outer loop
vertex -14.294519450605 11.7788041932247 3.00000233080222
vertex -13.3447563901651 11.3448399985858 2.00000294802982
vertex -13.3447570405594 11.3448399974506 3.00000294802957
endloop
endfacet
facet normal -0.166020916369177 -0.986122231433774 -1.09098446473343e-007
outer loop
vertex -14.2945188002107 11.7788041943599 2.00000233080246
vertex -15.3242376900655 11.9521648175652 3.00000166127611
vertex -15.3242370396712 11.9521648187003 2.00000166127635
endloop
endfacet
facet normal -0.166020916369177 -0.986122231433774 -1.09098446473343e-007
outer loop
vertex -15.3242376900655 11.9521648175652 3.00000166127611
vertex -14.2945188002107 11.7788041943599 2.00000233080246
vertex -14.294519450605 11.7788041932247 3.00000233080222
endloop
endfacet
facet normal 0.0948633234687642 -0.995490306261421 6.05685358022566e-008
outer loop
vertex -15.3242370396712 11.9521648187003 2.00000166127635
vertex -16.3637381626115 11.8531076304154 3.00000098507853
vertex -16.3637375122172 11.8531076315506 2.00000098507877
endloop
endfacet
facet normal 0.0948633234687642 -0.995490306261421 6.05685358022566e-008
outer loop
vertex -16.3637381626115 11.8531076304154 3.00000098507853
vertex -15.3242370396712 11.9521648187003 2.00000166127635
vertex -15.3242376900655 11.9521648175652 3.00000166127611
endloop
endfacet
facet normal 0.349282784581458 -0.93701736184287 2.26107872457231e-007
outer loop
vertex -16.3637375122172 11.8531076315506 2.00000098507877
vertex -17.3421806288947 11.4883832153799 3.00000034829116
vertex -17.3421799785004 11.488383216515 2.0000003482914
endloop
endfacet
facet normal 0.349282784581458 -0.93701736184287 2.26107872457231e-007
outer loop
vertex -17.3421806288947 11.4883832153799 3.00000034829116
vertex -16.3637375122172 11.8531076315506 2.00000098507877
vertex -16.3637381626115 11.8531076304154 3.00000098507853
endloop
endfacet
facet normal 0.579899201142043 -0.814688232709102 3.76238331265188e-007
outer loop
vertex -17.3421799785004 11.488383216515 2.0000003482914
vertex -18.1928858517906 10.8828469386076 2.99999979430991
vertex -18.1928852013963 10.8828469397427 1.99999979431015
endloop
endfacet
facet normal 0.579899201142043 -0.814688232709102 3.76238331265188e-007
outer loop
vertex -18.1928858517906 10.8828469386076 2.99999979430991
vertex -17.3421799785004 11.488383216515 2.0000003482914
vertex -17.3421806288947 11.4883832153799 3.00000034829116
endloop
endfacet
facet normal 0.770996445473435 -0.636839446852249 5.00728769560595e-007
outer loop
vertex -18.8578790258213 10.0777650977999 1.99999936088814
vertex -18.1928858517906 10.8828469386076 2.99999979430991
vertex -18.8578796762155 10.0777650966647 2.9999993608879
endloop
endfacet
facet normal 0.770996445473435 -0.636839446852249 5.00728769560595e-007
outer loop
vertex -18.1928858517906 10.8828469386076 2.99999979430991
vertex -18.8578790258213 10.0777650977999 1.99999936088814
vertex -18.1928852013963 10.8828469397427 1.99999979431015
endloop
endfacet
endsolid useless Machine arm
